# ProBuilder 4.2.3
# https://unity3d.com/unity/features/worldbuilding/probuilder
# 2/1/2020 4:48:50 PM

mtllib ./Tree.mtl
o Tree

g Tree
v 0 4.5 -1.081219
v 0.2884941 4.5 -1.360407
v 0.2884941 4.5 -1.639593
v 0 4.5 -1.918781
v -0.2884941 4.5 -1.639593
v -0.2884941 4.5 -1.360407
v -1 0 -2
v 0 0 -3
v 1 0 -2
v 1 0 -1
v -1 0 -1
v 0 0 0
v -1 1 -2
v 0 1 -3
v 1 1 -2
v 1 1 -1
v -1 1 -1
v 0 1 0
v -1.83926 1.5 -2.41963
v 0 1.5 -4.258892
v 1.83926 1.5 -2.41963
v 1.83926 1.5 -0.5803699
v -1.83926 1.5 -0.5803699
v 0 1.5 1.258892
v -1.595558 2 -2.272041
v 0 2 -3.816128
v 1.595558 2 -2.272041
v 1.595558 2 -0.7279587
v -1.595558 2 -0.7279587
v 0 2 0.8161278
v -1.372494 2.5 -2.164106
v 0 2.5 -3.492323
v 1.372494 2.5 -2.164106
v 1.372494 2.5 -0.8358936
v -1.372494 2.5 -0.8358936
v 0 2.5 0.4923229
v -1.1161 3 -2.040047
v 0 3 -3.120142
v 1.1161 3 -2.040047
v 1.1161 3 -0.9599533
v -1.1161 3 -0.9599533
v 0 3 0.120142
v -0.8825378 3.5 -1.927032
v 0 3.5 -2.781099
v 0.8825378 3.5 -1.927032
v 0.8825378 3.5 -1.072968
v -0.8825378 3.5 -1.072968
v 0 3.5 -0.2189007
v -0.591423 4 -1.786171
v 0 4 -2.358517
v 0.591423 4 -1.786171
v 0.591423 4 -1.213829
v -0.591423 4 -1.213829
v 0 4 -0.6414833

vt 0 -1.081219
vt -0.2884941 -1.360407
vt -0.2884941 -1.639593
vt 0 -1.918781
vt 0.2884941 -1.639593
vt 0.2884941 -1.360407
vt -1 -2
vt 0 -3
vt 1 -2
vt 1 -1
vt -1 -1
vt 0 0
vt -0.7071068 0
vt -2.12132 0
vt -0.7071068 1
vt -2.12132 1
vt 2.12132 0
vt 0.7071068 0
vt 2.12132 1
vt 0.7071068 1
vt 2 0
vt 1 0
vt 2 1
vt 1 1
vt -1 0
vt -2 0
vt -1 1
vt -2 1
vt 1.414214 0
vt 1.414214 1
vt 0 1
vt -1.414214 0
vt -1.414214 1
vt -1.298506 -2.070265
vt -0.3691264 -3.136218
vt -2.26306 -2.517571
vt -0.5536896 -4.478136
vt 0.3691259 -3.136218
vt 1.298505 -2.070266
vt 0.5536889 -4.478137
vt 2.263059 -2.517571
vt 1.370911 -2
vt 1.370911 -1
vt 2.347824 -2.41963
vt 2.347824 -0.5803699
vt -1.370911 -1
vt -1.370911 -2
vt -2.347824 -0.5803699
vt -2.347824 -2.41963
vt 1.298506 -0.7441195
vt 0.3691264 0.3218328
vt 2.26306 -0.2968139
vt 0.5536896 1.663751
vt -0.3691259 0.3218325
vt -1.298505 -0.7441196
vt -0.5536889 1.663751
vt -2.263059 -0.2968139
vt -0.4103852 -0.145651
vt -3.011493 -0.1456509
vt -0.4783473 0.4257982
vt -2.698411 0.4434211
vt 3.011493 -0.3268878
vt 0.4103849 -0.3268878
vt 2.698411 0.2630444
vt 0.4783471 0.2437282
vt 2.41963 0.5425261
vt 0.5803699 0.5425261
vt 2.272041 1.098755
vt 0.7279587 1.098755
vt -0.5803699 0.5425261
vt -2.41963 0.5425261
vt -0.7279587 1.098755
vt -2.272041 1.098755
vt 1.710936 0.8814496
vt -0.8901716 0.8814496
vt 1.642974 1.452899
vt -0.5770898 1.470522
vt 0.8901715 0.7989123
vt -1.710936 0.7989123
vt 0.5770898 1.388844
vt -1.642974 1.369528
vt -0.4334528 0.6562386
vt -2.653815 0.6562386
vt -0.5186872 1.20773
vt -2.428634 1.20773
vt 2.653815 0.656233
vt 0.4334528 0.656233
vt 2.428634 1.207725
vt 0.5186872 1.207724
vt 2.272041 1.176413
vt 0.7279587 1.176413
vt 2.164106 1.723914
vt 0.8358936 1.723914
vt -0.7279587 1.176413
vt -2.272041 1.176413
vt -0.8358936 1.723914
vt -2.164106 1.723914
vt 1.65281 1.56582
vt -0.5675523 1.56582
vt 1.567575 2.117311
vt -0.3423717 2.117312
vt 0.5675523 1.565818
vt -1.65281 1.565818
vt 0.3423717 2.11731
vt -1.567575 2.117309
vt -0.518686 1.020758
vt -2.428633 1.020758
vt -0.6166574 1.587795
vt -2.169811 1.587794
vt 2.428633 1.020761
vt 0.518686 1.020761
vt 2.169811 1.587797
vt 0.6166574 1.587797
vt 2.164106 1.598315
vt 0.8358936 1.598315
vt 2.040047 2.16022
vt 0.9599533 2.16022
vt -0.8358936 1.598315
vt -2.164106 1.598315
vt -0.9599533 2.16022
vt -2.040047 2.16022
vt 1.567576 2.037577
vt -0.3423715 2.037577
vt 1.469604 2.604613
vt -0.08354921 2.604613
vt 0.3423715 2.037579
vt -1.567576 2.037579
vt 0.08354921 2.604614
vt -1.469604 2.604615
vt -0.6166582 1.714728
vt -2.169812 1.714728
vt -0.7059044 2.270929
vt -1.934034 2.270929
vt 2.169812 1.714726
vt 0.6166583 1.714726
vt 1.934034 2.270927
vt 0.7059045 2.270926
vt 2.040047 2.245709
vt 0.9599533 2.245709
vt 1.927032 2.797571
vt 1.072968 2.797571
vt -0.9599533 2.245709
vt -2.040047 2.245709
vt -1.072968 2.797571
vt -1.927032 2.797571
vt 1.469604 2.659053
vt -0.08354923 2.659053
vt 1.380358 3.215253
vt 0.1522281 3.215253
vt 0.08354924 2.659052
vt -1.469604 2.659052
vt -0.1522281 3.215252
vt -1.380358 3.215252
vt -0.7059037 1.954063
vt -1.934034 1.954063
vt -0.8171417 2.539055
vt -1.640161 2.539055
vt 1.934034 1.954072
vt 0.7059037 1.954072
vt 1.640161 2.539063
vt 0.8171417 2.539064
vt 1.927032 2.580621
vt 1.072968 2.580621
vt 1.786171 3.159194
vt 1.213829 3.159194
vt -1.072968 2.580621
vt -1.927032 2.580621
vt -1.213829 3.159194
vt -1.786171 3.159194
vt 1.380358 3.073149
vt 0.152228 3.073149
vt 1.26912 3.658141
vt 0.4461007 3.65814
vt -0.152228 3.073153
vt -1.380358 3.073153
vt -0.4461007 3.658144
vt -1.26912 3.658145
vt -0.8171449 2.47588
vt -1.640164 2.47588
vt -0.9328967 3.067364
vt -1.334363 3.067364
vt 1.640164 2.47588
vt 0.817145 2.47588
vt 1.334363 3.067363
vt 0.9328968 3.067363
vt 1.786171 3.114638
vt 1.213829 3.114638
vt 1.639593 3.699246
vt 1.360407 3.699246
vt -1.213829 3.114638
vt -1.786171 3.114638
vt -1.360407 3.699246
vt -1.639593 3.699246
vt 1.269121 3.627599
vt 0.4461016 3.627599
vt 1.153369 4.219082
vt 0.7519032 4.219082
vt -0.4461016 3.627599
vt -1.269121 3.627599
vt -0.7519033 4.219082
vt -1.153369 4.219082

vn 0 1 0
vn 0 -1 0
vn -0.7071068 0 -0.7071068
vn 0.7071068 0 -0.7071068
vn 1 0 0
vn -1 0 0
vn 0.7071068 0 0.7071068
vn -0.7071068 0 0.7071068
vn -0.3462879 -0.8718769 -0.3462879
vn 0.3462875 -0.8718773 -0.3462875
vn 0.5118167 -0.8590947 0
vn -0.5118167 -0.8590947 0
vn 0.3462879 -0.8718769 0.3462879
vn -0.3462875 -0.8718773 0.3462875
vn -0.6186964 0.4841801 -0.6186957
vn -0.6027008 0.5105217 -0.6124793
vn -0.5867053 0.5368632 -0.606263
vn 0.5993122 0.5307075 -0.5993116
vn 0.6041884 0.5066715 -0.6143396
vn 0.6090645 0.4826355 -0.6293675
vn 0.8989104 0.4381324 0
vn -0.8989104 0.4381324 0
vn 0.6186964 0.4841801 0.6186957
vn 0.6027008 0.5105217 0.6124793
vn 0.5867053 0.5368632 0.606263
vn -0.5993122 0.5307075 0.5993116
vn -0.6041884 0.5066715 0.6143396
vn -0.6090645 0.4826355 0.6293675
vn -0.6304912 0.4219214 -0.6515085
vn 0.6304907 0.4219229 -0.651508
vn 0.9132398 0.4074226 0
vn -0.9132398 0.4074226 0
vn 0.6304912 0.4219214 0.6515085
vn -0.6304907 0.4219229 0.651508
vn -0.6132066 0.4716646 -0.6336483
vn 0.6132069 0.4716639 -0.6336486
vn 0.8898296 0.456293 0
vn -0.8898296 0.456293 0
vn 0.6132066 0.4716646 0.6336483
vn -0.6132069 0.4716639 0.6336486
vn -0.6251533 0.4380373 -0.6459928
vn 0.6251531 0.4380379 -0.6459926
vn 0.906024 0.4232262 0
vn -0.906024 0.4232262 0
vn 0.6251533 0.4380373 0.6459928
vn -0.6251531 0.4380379 0.6459926
vn -0.5943844 0.5191023 -0.6141986
vn 0.5943852 0.5191003 -0.6141995
vn 0.8641936 0.5031594 0
vn -0.8641936 0.5031594 0
vn 0.5943844 0.5191023 0.6141986
vn -0.5943852 0.5191003 0.6141995
vn -0.5878627 0.5342407 -0.6074572
vn 0.5878627 0.5342408 -0.6074572
vn 0.8552747 0.5181749 0
vn -0.8552747 0.5181749 0
vn 0.5878627 0.5342407 0.6074572
vn -0.5878627 0.5342408 0.6074572

usemtl treematerial
f 3/3/1 4/4/1 5/5/1
f 2/2/1 3/3/1 5/5/1
f 2/2/1 5/5/1 6/6/1
f 1/1/1 2/2/1 6/6/1
f 11/11/2 10/10/2 12/12/2
f 11/11/2 7/7/2 10/10/2
f 7/7/2 9/9/2 10/10/2
f 7/7/2 8/8/2 9/9/2
f 20/37/9 14/35/9 13/34/9
f 13/34/9 19/36/9 20/37/9
f 21/41/10 15/39/10 14/38/10
f 14/38/10 20/40/10 21/41/10
f 22/45/11 16/43/11 15/42/11
f 15/42/11 21/44/11 22/45/11
f 19/49/12 13/47/12 17/46/12
f 17/46/12 23/48/12 19/49/12
f 24/53/13 18/51/13 16/50/13
f 16/50/13 22/52/13 24/53/13
f 23/57/14 17/55/14 18/54/14
f 18/54/14 24/56/14 23/57/14
f 26/61/17 20/59/16 19/58/15
f 19/58/15 25/60/16 26/61/17
f 27/65/20 21/63/19 20/62/18
f 20/62/18 26/64/19 27/65/20
f 28/69/21 22/67/21 21/66/21
f 21/66/21 27/68/21 28/69/21
f 25/73/22 19/71/22 23/70/22
f 23/70/22 29/72/22 25/73/22
f 30/77/25 24/75/24 22/74/23
f 22/74/23 28/76/24 30/77/25
f 29/81/28 23/79/27 24/78/26
f 24/78/26 30/80/27 29/81/28
f 32/85/29 26/83/29 25/82/29
f 25/82/29 31/84/29 32/85/29
f 33/89/30 27/87/30 26/86/30
f 26/86/30 32/88/30 33/89/30
f 34/93/31 28/91/31 27/90/31
f 27/90/31 33/92/31 34/93/31
f 31/97/32 25/95/32 29/94/32
f 29/94/32 35/96/32 31/97/32
f 36/101/33 30/99/33 28/98/33
f 28/98/33 34/100/33 36/101/33
f 35/105/34 29/103/34 30/102/34
f 30/102/34 36/104/34 35/105/34
f 38/109/35 32/107/35 31/106/35
f 31/106/35 37/108/35 38/109/35
f 39/113/36 33/111/36 32/110/36
f 32/110/36 38/112/36 39/113/36
f 40/117/37 34/115/37 33/114/37
f 33/114/37 39/116/37 40/117/37
f 37/121/38 31/119/38 35/118/38
f 35/118/38 41/120/38 37/121/38
f 42/125/39 36/123/39 34/122/39
f 34/122/39 40/124/39 42/125/39
f 41/129/40 35/127/40 36/126/40
f 36/126/40 42/128/40 41/129/40
f 44/133/41 38/131/41 37/130/41
f 37/130/41 43/132/41 44/133/41
f 45/137/42 39/135/42 38/134/42
f 38/134/42 44/136/42 45/137/42
f 46/141/43 40/139/43 39/138/43
f 39/138/43 45/140/43 46/141/43
f 43/145/44 37/143/44 41/142/44
f 41/142/44 47/144/44 43/145/44
f 48/149/45 42/147/45 40/146/45
f 40/146/45 46/148/45 48/149/45
f 47/153/46 41/151/46 42/150/46
f 42/150/46 48/152/46 47/153/46
f 50/157/47 44/155/47 43/154/47
f 43/154/47 49/156/47 50/157/47
f 51/161/48 45/159/48 44/158/48
f 44/158/48 50/160/48 51/161/48
f 52/165/49 46/163/49 45/162/49
f 45/162/49 51/164/49 52/165/49
f 49/169/50 43/167/50 47/166/50
f 47/166/50 53/168/50 49/169/50
f 54/173/51 48/171/51 46/170/51
f 46/170/51 52/172/51 54/173/51
f 53/177/52 47/175/52 48/174/52
f 48/174/52 54/176/52 53/177/52
f 4/181/53 50/179/53 49/178/53
f 49/178/53 5/180/53 4/181/53
f 3/185/54 51/183/54 50/182/54
f 50/182/54 4/184/54 3/185/54
f 2/189/55 52/187/55 51/186/55
f 51/186/55 3/188/55 2/189/55
f 5/193/56 49/191/56 53/190/56
f 53/190/56 6/192/56 5/193/56
f 1/197/57 54/195/57 52/194/57
f 52/194/57 2/196/57 1/197/57
f 6/201/58 53/199/58 54/198/58
f 54/198/58 1/200/58 6/201/58

usemtl TrunkMaterial
f 13/15/3 14/16/3 8/14/3 7/13/3
f 14/19/4 15/20/4 9/18/4 8/17/4
f 15/23/5 16/24/5 10/22/5 9/21/5
f 17/27/6 13/28/6 7/26/6 11/25/6
f 16/30/7 18/31/7 12/12/7 10/29/7
f 18/31/8 17/33/8 11/32/8 12/12/8

